HIERARCHY
ROOT Hips
{
	OFFSET 0.000000 0.000000 0.000000
	CHANNELS 6 Xposition Yposition Zposition Xrotation Yrotation Zrotation
	JOINT LeftUpLeg_virtual
	{
		OFFSET 0.000000 0.000000 0.000000
		CHANNELS 3 Xrotation Yrotation Zrotation
		JOINT LeftUpLeg
		{
			OFFSET 15.427100 -6.655098 0.678600
			CHANNELS 3 Xrotation Yrotation Zrotation
			JOINT LeftLeg
			{
				OFFSET 4.081073 -39.591068 13.024000
				CHANNELS 3 Xrotation Yrotation Zrotation
				JOINT LeftFoot
				{
					OFFSET -4.081074 -37.707932 -15.979700
					CHANNELS 3 Xrotation Yrotation Zrotation
					JOINT LeftToeBase
					{
						OFFSET 5.346399 -15.068900 20.645000
						CHANNELS 3 Xrotation Yrotation Zrotation
						JOINT LeftToe_End
						{
							OFFSET 2.754700 0.931300 11.300900
							CHANNELS 3 Xrotation Yrotation Zrotation
							End Site
							{
								OFFSET 0 0 0
							}
						}
					}
				}
			}
		}
	}
	JOINT RightUpLeg_virtual
	{
		OFFSET 0.000000 0.000000 0.000000
		CHANNELS 3 Xrotation Yrotation Zrotation
		JOINT RightUpLeg
		{
			OFFSET -15.569500 -6.655098 0.678600
			CHANNELS 3 Xrotation Yrotation Zrotation
			JOINT RightLeg
			{
				OFFSET -4.081825 -39.591045 13.023800
				CHANNELS 3 Xrotation Yrotation Zrotation
				JOINT RightFoot
				{
					OFFSET 4.081824 -37.707954 -15.979600
					CHANNELS 3 Xrotation Yrotation Zrotation
					JOINT RightToeBase
					{
						OFFSET -5.346400 -15.068900 20.645000
						CHANNELS 3 Xrotation Yrotation Zrotation
						JOINT RightToe_End
						{
							OFFSET -2.754700 0.931300 11.300900
							CHANNELS 3 Xrotation Yrotation Zrotation
							End Site
							{
								OFFSET 0 0 0
							}
						}
					}
				}
			}
		}
	}
	JOINT Spine_virtual
	{
		OFFSET 0.000000 0.000000 0.000000
		CHANNELS 3 Xrotation Yrotation Zrotation
		JOINT Spine
		{
			OFFSET -0.279200 12.230698 -2.892100
			CHANNELS 3 Xrotation Yrotation Zrotation
			JOINT Spine1
			{
				OFFSET -0.232667 10.192268 -1.242267
				CHANNELS 3 Xrotation Yrotation Zrotation
				JOINT Spine1_split
				{
					OFFSET -0.232667 10.192268 -1.242267
					CHANNELS 3 Xrotation Yrotation Zrotation
					JOINT Spine2
					{
						OFFSET -0.232667 10.192268 -1.242267
						CHANNELS 3 Xrotation Yrotation Zrotation
						JOINT Neck_virtual
						{
							OFFSET 0.000000 0.000000 0.000000
							CHANNELS 3 Xrotation Yrotation Zrotation
							JOINT Neck
							{
								OFFSET -0.418800 17.814194 8.416900
								CHANNELS 3 Xrotation Yrotation Zrotation
								JOINT Head
								{
									OFFSET 0.000000 7.031097 3.806800
									CHANNELS 3 Xrotation Yrotation Zrotation
									JOINT HeadTop_End
									{
										OFFSET 0.000000 24.646606 12.978600
										CHANNELS 3 Xrotation Yrotation Zrotation
										End Site
										{
											OFFSET 0 0 0
										}
									}
								}
							}
						}
						JOINT LeftShoulder_virtual
						{
							OFFSET 0.000000 0.000000 0.000000
							CHANNELS 3 Xrotation Yrotation Zrotation
							JOINT LeftShoulder
							{
								OFFSET 8.476499 7.247704 -3.868750
								CHANNELS 3 Xrotation Yrotation Zrotation
								JOINT LeftShoulder_split
								{
									OFFSET 8.476499 7.247704 -3.868750
									CHANNELS 3 Xrotation Yrotation Zrotation
									JOINT LeftArm
									{
										OFFSET 9.308998 -2.777710 0.208600
										CHANNELS 3 Xrotation Yrotation Zrotation
										JOINT LeftForeArm
										{
											OFFSET 29.972298 0.000000 0.000000
											CHANNELS 3 Xrotation Yrotation Zrotation
											JOINT LeftHand
											{
												OFFSET 26.026505 0.000000 0.000000
												CHANNELS 3 Xrotation Yrotation Zrotation
												End Site
												{
													OFFSET 0 0 0
												}
											}
										}
									}
								}
							}
						}
						JOINT RightShoulder_virtual
						{
							OFFSET 0.000000 0.000000 0.000000
							CHANNELS 3 Xrotation Yrotation Zrotation
							JOINT RightShoulder
							{
								OFFSET -7.570500 7.247704 -3.868750
								CHANNELS 3 Xrotation Yrotation Zrotation
								JOINT RightShoulder_split
								{
									OFFSET -7.570500 7.247704 -3.868750
									CHANNELS 3 Xrotation Yrotation Zrotation
									JOINT RightArm
									{
										OFFSET -9.308998 -2.777710 0.208500
										CHANNELS 3 Xrotation Yrotation Zrotation
										JOINT RightForeArm
										{
											OFFSET -29.972300 0.000000 0.000000
											CHANNELS 3 Xrotation Yrotation Zrotation
											JOINT RightHand
											{
												OFFSET -26.026505 0.000000 0.000000
												CHANNELS 3 Xrotation Yrotation Zrotation
												End Site
												{
													OFFSET 0 0 0
												}
											}
										}
									}
								}
							}
						}
					}
				}
			}
		}
	}
}
MOTION
Frames: 9
Frame Time: 0.03333333
2.011883 76.636505 -1.809093 0.000000 0.000000 0.000000 20.597834 -5.835561 -26.590376 -77.234700 -16.310888 22.214997 69.401361 -6.872458 9.236825 -9.566314 -1.229108 -8.006185 -5.180141 -0.392748 -0.806808 0.000000 0.000000 0.000000 21.037304 -2.698874 -28.766534 -13.156220 -23.050901 16.747253 20.679564 -7.206085 -0.030017 -3.385044 -9.911505 13.414013 -4.036725 1.130089 1.654186 0.000000 0.000000 0.000000 18.383623 -5.416842 -27.087521 7.376500 3.401097 -18.065758 6.419940 3.121072 -11.232980 2.025780 0.584981 0.025171 0.000000 0.000000 0.000000 6.949352 3.083954 -10.889677 -0.508105 3.024782 -5.916139 -7.348152 17.593235 -4.462060 0.000000 0.000000 0.000000 6.643411 3.617805 -10.858666 0.256349 -3.902744 16.023841 -1.937908 -0.575875 -2.605615 -55.200411 -45.268865 -95.751732 4.070319 -59.313868 2.628862 0.000000 0.000000 0.000000 7.358871 3.242593 -11.298317 0.317669 -3.865982 -0.926019 7.335301 3.788586 -1.768785 -1.911925 60.589467 18.718292 -2.449125 76.420644 1.884201 0.000000 0.000000 0.000000 
2.243550 76.871117 -1.817921 0.000000 0.000000 0.000000 20.660045 -6.188812 -25.973971 -76.861328 -15.144884 22.622804 69.328537 -6.978356 9.126751 -10.108560 -0.984347 -7.870082 -5.021233 -0.464580 -0.814939 0.000000 0.000000 0.000000 21.004428 -3.076914 -28.095314 -13.932340 -23.281482 16.032667 21.048642 -7.387919 -0.014105 -2.821718 -9.715792 13.279294 -3.791601 1.153380 1.618653 0.000000 0.000000 0.000000 18.488175 -5.617084 -26.560067 7.553495 3.273061 -17.745011 6.487504 3.026469 -11.050830 2.138614 0.848521 -0.323498 0.000000 0.000000 0.000000 6.838466 3.029261 -10.709058 0.766253 2.585091 -4.831932 -4.807881 17.442013 -3.148735 0.000000 0.000000 0.000000 6.762448 3.458683 -10.706569 0.060476 -3.608527 16.564682 -1.508589 -0.526325 -2.352114 -54.343598 -45.235083 -94.970543 3.256143 -58.883389 2.161287 0.000000 0.000000 0.000000 7.466963 3.197463 -11.109823 0.386299 -3.257593 -1.665288 7.171908 3.795641 -1.561009 -2.517296 61.476518 20.326662 -2.125345 74.645375 1.565965 0.000000 0.000000 0.000000 
2.452673 77.124367 -1.825966 0.000000 0.000000 0.000000 20.676996 -6.546694 -25.346612 -76.416662 -14.084419 23.152461 69.302760 -7.041932 8.949948 -10.543621 -0.673201 -7.847011 -4.902444 -0.525858 -0.867360 0.000000 0.000000 0.000000 20.944719 -3.349517 -27.426990 -14.746655 -23.402287 15.330307 21.445633 -7.604319 -0.013046 -2.356341 -9.499804 13.167462 -3.564019 1.177963 1.552188 0.000000 0.000000 0.000000 18.448973 -5.949606 -25.978184 7.782604 3.130949 -17.555150 6.487137 2.906632 -10.781069 2.205048 1.182926 -0.410789 0.000000 0.000000 0.000000 6.659624 2.937239 -10.436462 2.290533 2.276753 -3.688154 -2.348920 17.203928 -1.715739 0.000000 0.000000 0.000000 6.799864 3.270996 -10.497353 -0.138772 -3.331469 16.863023 -0.910673 -0.327162 -2.049454 -52.855965 -45.255013 -93.684084 2.973987 -58.449590 2.100164 0.000000 0.000000 0.000000 7.470696 3.137978 -10.829678 0.430627 -2.643227 -2.407588 6.894975 3.903678 -1.311700 -3.907041 61.862772 22.845858 -1.895642 72.640735 1.220349 0.000000 0.000000 0.000000 
2.610721 77.391388 -1.847702 0.000000 0.000000 0.000000 20.680274 -6.958331 -24.678981 -75.926070 -13.064642 23.801065 69.301633 -7.041604 8.713623 -10.811025 -0.321402 -7.870991 -4.871880 -0.579562 -0.937467 0.000000 0.000000 0.000000 20.915310 -3.554852 -26.734434 -15.604891 -23.376970 14.683121 21.861492 -7.860183 -0.067223 -2.077169 -9.304461 13.007386 -3.297117 1.199790 1.480739 0.000000 0.000000 0.000000 18.343207 -6.416621 -25.324619 8.043117 3.008155 -17.476299 6.467060 2.768636 -10.453463 2.196152 1.387591 -0.266190 0.000000 0.000000 0.000000 6.532343 2.827965 -10.113913 3.909965 2.158802 -2.570463 -0.304171 16.997336 -0.266788 0.000000 0.000000 0.000000 6.817518 3.089031 -10.273185 -0.313449 -3.127820 16.918799 -0.306635 -0.093249 -1.735386 -50.895868 -45.609486 -91.771890 3.133573 -58.051485 2.360680 0.000000 0.000000 0.000000 7.420867 3.068414 -10.505687 0.462246 -2.054327 -3.031366 6.512444 3.984381 -1.012584 -5.524828 61.905003 25.596697 -1.717212 70.882528 0.865434 0.000000 0.000000 0.000000 
2.704234 77.686211 -1.920055 0.000000 0.000000 0.000000 20.694467 -7.419372 -23.931253 -75.368569 -12.027954 24.504217 69.232000 -6.979303 8.478045 -10.991355 0.043442 -7.925200 -4.879921 -0.627230 -0.991830 0.000000 0.000000 0.000000 20.975991 -3.737647 -25.978548 -16.550132 -23.231049 14.095245 22.309577 -8.154337 -0.205086 -2.010099 -9.158840 12.729984 -2.931012 1.217602 1.423678 0.000000 0.000000 0.000000 18.293676 -6.975179 -24.598173 8.310698 2.927010 -17.452122 6.484799 2.647322 -10.126515 2.056560 1.204706 0.032465 0.000000 0.000000 0.000000 6.515916 2.723466 -9.800429 5.396869 2.260227 -1.577366 1.146273 16.909684 1.072277 0.000000 0.000000 0.000000 6.885232 2.935651 -10.098393 -0.410293 -3.007722 16.777856 0.104273 0.044923 -1.326777 -48.731699 -46.394261 -89.325057 3.554031 -57.827230 2.813363 0.000000 0.000000 0.000000 7.404609 3.005634 -10.213783 0.528490 -1.563404 -3.429192 6.066995 3.871991 -0.811792 -6.933925 61.812085 28.091544 -1.566230 69.845200 0.593989 0.000000 0.000000 0.000000 
2.725684 77.990631 -2.040421 0.000000 0.000000 0.000000 20.763591 -7.887994 -23.076033 -74.712441 -10.929466 25.165099 68.930030 -6.859876 8.284085 -11.242326 0.414909 -8.039666 -4.792858 -0.668300 -1.011594 0.000000 0.000000 0.000000 21.126789 -3.962430 -25.110478 -17.673726 -23.034460 13.520969 22.767179 -8.476500 -0.427664 -2.073844 -9.061831 12.337728 -2.511037 1.224976 1.378090 0.000000 0.000000 0.000000 18.332878 -7.601326 -23.763005 8.558405 2.901725 -17.396487 6.586810 2.575983 -9.848528 1.977436 0.718537 0.274714 0.000000 0.000000 0.000000 6.622382 2.658028 -9.550578 6.605624 2.533550 -0.799077 2.027776 17.005918 2.177774 0.000000 0.000000 0.000000 7.055561 2.830501 -10.015282 -0.415639 -2.987293 16.543133 0.311084 -0.074475 -0.882004 -46.469185 -47.294538 -86.544063 3.966233 -58.120190 3.262018 0.000000 0.000000 0.000000 7.497758 2.966025 -10.011775 0.615120 -1.224797 -3.619676 5.725011 3.772854 -0.744831 -7.672490 61.805419 29.826565 -1.391162 69.584137 0.441947 0.000000 0.000000 0.000000 
2.678178 78.309982 -2.246395 0.000000 0.000000 0.000000 20.887342 -8.314078 -22.124501 -73.943034 -9.776878 25.714769 68.281025 -6.690824 8.165709 -11.631869 0.785832 -8.354712 -4.610715 -0.692289 -0.982045 0.000000 0.000000 0.000000 21.299443 -4.350658 -24.103224 -19.059419 -22.840246 12.941317 23.219788 -8.772020 -0.729734 -2.136180 -8.965359 11.947614 -2.179565 1.215435 1.325867 0.000000 0.000000 0.000000 18.518890 -8.277410 -22.807375 8.783354 2.917196 -17.239032 6.779589 2.585579 -9.646378 1.943264 0.249720 0.285572 0.000000 0.000000 0.000000 6.820002 2.665938 -9.374687 7.501775 2.851922 -0.292523 2.517471 17.232972 2.965866 0.000000 0.000000 0.000000 7.327465 2.811495 -10.023691 -0.311544 -3.030361 16.361139 0.357164 -0.409096 -0.593895 -44.489096 -47.884267 -83.936488 4.126278 -59.211265 3.535060 0.000000 0.000000 0.000000 7.733771 2.992715 -9.905233 0.754543 -1.037206 -3.621186 5.641869 3.718367 -0.923099 -7.747037 62.065048 30.803760 -1.115180 69.562991 0.377728 0.000000 0.000000 0.000000 
2.564449 78.638451 -2.507740 0.000000 0.000000 0.000000 21.070266 -8.679172 -21.103761 -73.090606 -8.630756 26.118508 67.345918 -6.451661 8.155382 -12.059504 1.193359 -8.992368 -4.379108 -0.686777 -0.913517 0.000000 0.000000 0.000000 21.475720 -4.913086 -22.972286 -20.694430 -22.702249 12.360931 23.660072 -9.003083 -1.081013 -2.124774 -8.800858 11.627052 -1.969833 1.187267 1.262924 0.000000 0.000000 0.000000 18.830341 -9.015893 -21.732450 8.972464 2.939346 -16.934001 7.011945 2.678829 -9.490492 1.978912 -0.115988 0.254486 0.000000 0.000000 0.000000 7.010086 2.737934 -9.239147 8.103957 3.118344 -0.052987 2.884639 17.530227 3.424579 0.000000 0.000000 0.000000 7.629262 2.882004 -10.044643 -0.101947 -3.079803 16.368444 0.313313 -0.875439 -0.635984 -43.162363 -47.767625 -82.069026 3.999470 -61.105126 3.589786 0.000000 0.000000 0.000000 8.056852 3.084325 -9.844850 0.917989 -0.973713 -3.444007 5.817838 3.673331 -1.260756 -7.233701 62.654951 31.058277 -0.723942 68.872656 0.338512 0.000000 0.000000 0.000000 
2.364068 78.956696 -2.792721 0.000000 0.000000 0.000000 21.302349 -9.059122 -20.054619 -72.193740 -7.530782 26.432508 66.295216 -6.029959 8.219794 -12.423954 1.701471 -9.894602 -4.106499 -0.644159 -0.846619 0.000000 0.000000 0.000000 21.626964 -5.719381 -21.748857 -22.481827 -22.616503 11.806950 24.030515 -9.136379 -1.462404 -2.090299 -8.509788 11.373366 -1.806065 1.144928 1.192966 0.000000 0.000000 0.000000 19.210641 -9.831271 -20.563039 9.115041 2.941472 -16.488939 7.211313 2.818571 -9.324090 1.927049 0.018089 0.119191 0.000000 0.000000 0.000000 7.131825 2.863699 -9.075324 8.480624 3.248603 -0.022755 3.280160 17.773066 3.617465 0.000000 0.000000 0.000000 7.851716 3.041440 -9.979404 0.176920 -3.149060 16.606106 0.322262 -1.357379 -0.951901 -42.573659 -46.850156 -81.141274 3.646191 -63.445941 3.455713 0.000000 0.000000 0.000000 8.379867 3.216589 -9.758036 1.055848 -0.992679 -3.133270 6.230338 3.597443 -1.605483 -6.389988 63.584615 30.812797 -0.223429 66.994115 0.211936 0.000000 0.000000 0.000000 
